<mxfile host="65bd71144e">
    <diagram id="9XWNfqc5hdtehSm1KA1c" name="Page-1">
        <mxGraphModel dx="584" dy="478" grid="1" gridSize="10" guides="1" tooltips="1" connect="1" arrows="1" fold="1" page="1" pageScale="1" pageWidth="827" pageHeight="1169" math="0" shadow="0">
            <root>
                <mxCell id="0"/>
                <mxCell id="1" parent="0"/>
                <mxCell id="2" value="Actor" style="shape=umlActor;verticalLabelPosition=bottom;verticalAlign=top;html=1;outlineConnect=0;" vertex="1" parent="1">
                    <mxGeometry x="300" y="290" width="30" height="60" as="geometry"/>
                </mxCell>
                <mxCell id="3" value="book&lt;br&gt;" style="whiteSpace=wrap;html=1;shape=mxgraph.basic.cloud_callout" vertex="1" parent="1">
                    <mxGeometry x="340" y="200" width="120" height="80" as="geometry"/>
                </mxCell>
                <mxCell id="4" value="author&lt;br&gt;" style="whiteSpace=wrap;html=1;shape=mxgraph.basic.cloud_callout" vertex="1" parent="1">
                    <mxGeometry x="190" y="200" width="110" height="80" as="geometry"/>
                </mxCell>
                <mxCell id="5" value="genre" style="whiteSpace=wrap;html=1;shape=mxgraph.basic.cloud_callout" vertex="1" parent="1">
                    <mxGeometry x="345" y="100" width="110" height="80" as="geometry"/>
                </mxCell>
                <mxCell id="6" value="publisher&lt;br&gt;" style="whiteSpace=wrap;html=1;shape=mxgraph.basic.cloud_callout" vertex="1" parent="1">
                    <mxGeometry x="190" y="100" width="110" height="80" as="geometry"/>
                </mxCell>
                <mxCell id="vlLGPjRmn_W-sKiUh0PT-6" value="customer" style="whiteSpace=wrap;html=1;shape=mxgraph.basic.cloud_callout" vertex="1" parent="1">
                    <mxGeometry x="270" y="10" width="110" height="80" as="geometry"/>
                </mxCell>
            </root>
        </mxGraphModel>
    </diagram>
    <diagram id="WuchpdBO0As-qiHHqFxY" name="Page-2">
        <mxGraphModel dx="1606" dy="637" grid="1" gridSize="10" guides="1" tooltips="1" connect="1" arrows="1" fold="1" page="1" pageScale="1" pageWidth="827" pageHeight="1169" math="0" shadow="0">
            <root>
                <mxCell id="DdgZDDsIpEVwBnPYaglk-0"/>
                <mxCell id="DdgZDDsIpEVwBnPYaglk-1" parent="DdgZDDsIpEVwBnPYaglk-0"/>
                <mxCell id="1tecws5XsYevQCB5SjMD-8" style="edgeStyle=none;html=1;" edge="1" parent="DdgZDDsIpEVwBnPYaglk-1" source="lZ5tawJ0SZ7jda7Gi2ym-0">
                    <mxGeometry relative="1" as="geometry">
                        <mxPoint x="410" y="300" as="targetPoint"/>
                    </mxGeometry>
                </mxCell>
                <mxCell id="1tecws5XsYevQCB5SjMD-16" style="edgeStyle=none;html=1;" edge="1" parent="DdgZDDsIpEVwBnPYaglk-1" source="lZ5tawJ0SZ7jda7Gi2ym-0" target="1tecws5XsYevQCB5SjMD-15">
                    <mxGeometry relative="1" as="geometry"/>
                </mxCell>
                <mxCell id="1tecws5XsYevQCB5SjMD-17" style="edgeStyle=none;html=1;entryX=1;entryY=1;entryDx=0;entryDy=0;" edge="1" parent="DdgZDDsIpEVwBnPYaglk-1" source="lZ5tawJ0SZ7jda7Gi2ym-0" target="1tecws5XsYevQCB5SjMD-12">
                    <mxGeometry relative="1" as="geometry"/>
                </mxCell>
                <mxCell id="1tecws5XsYevQCB5SjMD-18" style="edgeStyle=none;html=1;entryX=0.5;entryY=1;entryDx=0;entryDy=0;" edge="1" parent="DdgZDDsIpEVwBnPYaglk-1" source="lZ5tawJ0SZ7jda7Gi2ym-0" target="1tecws5XsYevQCB5SjMD-13">
                    <mxGeometry relative="1" as="geometry"/>
                </mxCell>
                <mxCell id="1tecws5XsYevQCB5SjMD-19" style="edgeStyle=none;html=1;" edge="1" parent="DdgZDDsIpEVwBnPYaglk-1" source="lZ5tawJ0SZ7jda7Gi2ym-0" target="1tecws5XsYevQCB5SjMD-14">
                    <mxGeometry relative="1" as="geometry"/>
                </mxCell>
                <mxCell id="1tecws5XsYevQCB5SjMD-23" style="edgeStyle=none;html=1;entryX=0.5;entryY=0;entryDx=0;entryDy=0;" edge="1" parent="DdgZDDsIpEVwBnPYaglk-1" source="lZ5tawJ0SZ7jda7Gi2ym-0" target="1tecws5XsYevQCB5SjMD-22">
                    <mxGeometry relative="1" as="geometry"/>
                </mxCell>
                <mxCell id="1tecws5XsYevQCB5SjMD-24" style="edgeStyle=none;html=1;entryX=0.5;entryY=0;entryDx=0;entryDy=0;" edge="1" parent="DdgZDDsIpEVwBnPYaglk-1" source="lZ5tawJ0SZ7jda7Gi2ym-0" target="1tecws5XsYevQCB5SjMD-21">
                    <mxGeometry relative="1" as="geometry"/>
                </mxCell>
                <mxCell id="1tecws5XsYevQCB5SjMD-25" style="html=1;entryX=0.5;entryY=0;entryDx=0;entryDy=0;endArrow=none;endFill=0;" edge="1" parent="DdgZDDsIpEVwBnPYaglk-1" source="lZ5tawJ0SZ7jda7Gi2ym-0" target="1tecws5XsYevQCB5SjMD-20">
                    <mxGeometry relative="1" as="geometry"/>
                </mxCell>
                <mxCell id="1tecws5XsYevQCB5SjMD-43" style="edgeStyle=none;html=1;endArrow=none;endFill=0;" edge="1" parent="DdgZDDsIpEVwBnPYaglk-1" source="lZ5tawJ0SZ7jda7Gi2ym-0" target="1tecws5XsYevQCB5SjMD-42">
                    <mxGeometry relative="1" as="geometry"/>
                </mxCell>
                <mxCell id="1tecws5XsYevQCB5SjMD-46" style="edgeStyle=none;html=1;entryX=0;entryY=0;entryDx=0;entryDy=0;endArrow=none;endFill=0;" edge="1" parent="DdgZDDsIpEVwBnPYaglk-1" source="lZ5tawJ0SZ7jda7Gi2ym-0" target="1tecws5XsYevQCB5SjMD-44">
                    <mxGeometry relative="1" as="geometry"/>
                </mxCell>
                <mxCell id="1tecws5XsYevQCB5SjMD-47" style="edgeStyle=none;html=1;endArrow=none;endFill=0;" edge="1" parent="DdgZDDsIpEVwBnPYaglk-1" source="lZ5tawJ0SZ7jda7Gi2ym-0" target="1tecws5XsYevQCB5SjMD-45">
                    <mxGeometry relative="1" as="geometry"/>
                </mxCell>
                <mxCell id="lZ5tawJ0SZ7jda7Gi2ym-0" value="book" style="rounded=1;whiteSpace=wrap;html=1;" vertex="1" parent="DdgZDDsIpEVwBnPYaglk-1">
                    <mxGeometry x="220" y="270" width="120" height="60" as="geometry"/>
                </mxCell>
                <mxCell id="1tecws5XsYevQCB5SjMD-9" style="edgeStyle=none;html=1;entryX=0;entryY=0.5;entryDx=0;entryDy=0;" edge="1" parent="DdgZDDsIpEVwBnPYaglk-1" source="1tecws5XsYevQCB5SjMD-4" target="1tecws5XsYevQCB5SjMD-5">
                    <mxGeometry relative="1" as="geometry"/>
                </mxCell>
                <mxCell id="1tecws5XsYevQCB5SjMD-10" style="edgeStyle=none;html=1;entryX=0;entryY=0.5;entryDx=0;entryDy=0;" edge="1" parent="DdgZDDsIpEVwBnPYaglk-1" source="1tecws5XsYevQCB5SjMD-4" target="1tecws5XsYevQCB5SjMD-7">
                    <mxGeometry relative="1" as="geometry"/>
                </mxCell>
                <mxCell id="1tecws5XsYevQCB5SjMD-11" style="edgeStyle=none;html=1;entryX=0;entryY=0.5;entryDx=0;entryDy=0;" edge="1" parent="DdgZDDsIpEVwBnPYaglk-1" source="1tecws5XsYevQCB5SjMD-4" target="1tecws5XsYevQCB5SjMD-6">
                    <mxGeometry relative="1" as="geometry"/>
                </mxCell>
                <mxCell id="1tecws5XsYevQCB5SjMD-4" value="has" style="rhombus;whiteSpace=wrap;html=1;" vertex="1" parent="DdgZDDsIpEVwBnPYaglk-1">
                    <mxGeometry x="413.5" y="260" width="80" height="80" as="geometry"/>
                </mxCell>
                <mxCell id="1tecws5XsYevQCB5SjMD-40" style="edgeStyle=none;html=1;entryX=1;entryY=1;entryDx=0;entryDy=0;" edge="1" parent="DdgZDDsIpEVwBnPYaglk-1" source="1tecws5XsYevQCB5SjMD-5" target="1tecws5XsYevQCB5SjMD-26">
                    <mxGeometry relative="1" as="geometry"/>
                </mxCell>
                <mxCell id="1tecws5XsYevQCB5SjMD-41" style="edgeStyle=none;html=1;entryX=0.5;entryY=1;entryDx=0;entryDy=0;" edge="1" parent="DdgZDDsIpEVwBnPYaglk-1" source="1tecws5XsYevQCB5SjMD-5" target="1tecws5XsYevQCB5SjMD-27">
                    <mxGeometry relative="1" as="geometry"/>
                </mxCell>
                <mxCell id="1tecws5XsYevQCB5SjMD-5" value="publisher" style="rounded=1;whiteSpace=wrap;html=1;" vertex="1" parent="DdgZDDsIpEVwBnPYaglk-1">
                    <mxGeometry x="560" y="180" width="120" height="60" as="geometry"/>
                </mxCell>
                <mxCell id="1tecws5XsYevQCB5SjMD-35" style="edgeStyle=none;html=1;entryX=0.5;entryY=0;entryDx=0;entryDy=0;" edge="1" parent="DdgZDDsIpEVwBnPYaglk-1" source="1tecws5XsYevQCB5SjMD-6" target="1tecws5XsYevQCB5SjMD-32">
                    <mxGeometry relative="1" as="geometry"/>
                </mxCell>
                <mxCell id="1tecws5XsYevQCB5SjMD-36" style="edgeStyle=none;html=1;" edge="1" parent="DdgZDDsIpEVwBnPYaglk-1" source="1tecws5XsYevQCB5SjMD-6" target="1tecws5XsYevQCB5SjMD-33">
                    <mxGeometry relative="1" as="geometry"/>
                </mxCell>
                <mxCell id="1tecws5XsYevQCB5SjMD-37" style="edgeStyle=none;html=1;entryX=0.5;entryY=0;entryDx=0;entryDy=0;" edge="1" parent="DdgZDDsIpEVwBnPYaglk-1" source="1tecws5XsYevQCB5SjMD-6" target="1tecws5XsYevQCB5SjMD-34">
                    <mxGeometry relative="1" as="geometry"/>
                </mxCell>
                <mxCell id="1tecws5XsYevQCB5SjMD-6" value="author" style="rounded=1;whiteSpace=wrap;html=1;" vertex="1" parent="DdgZDDsIpEVwBnPYaglk-1">
                    <mxGeometry x="560" y="360" width="120" height="60" as="geometry"/>
                </mxCell>
                <mxCell id="1tecws5XsYevQCB5SjMD-38" style="edgeStyle=none;html=1;entryX=0;entryY=0.5;entryDx=0;entryDy=0;" edge="1" parent="DdgZDDsIpEVwBnPYaglk-1" source="1tecws5XsYevQCB5SjMD-7" target="1tecws5XsYevQCB5SjMD-29">
                    <mxGeometry relative="1" as="geometry"/>
                </mxCell>
                <mxCell id="1tecws5XsYevQCB5SjMD-39" style="edgeStyle=none;html=1;" edge="1" parent="DdgZDDsIpEVwBnPYaglk-1" source="1tecws5XsYevQCB5SjMD-7" target="1tecws5XsYevQCB5SjMD-30">
                    <mxGeometry relative="1" as="geometry"/>
                </mxCell>
                <mxCell id="1tecws5XsYevQCB5SjMD-7" value="genre" style="rounded=1;whiteSpace=wrap;html=1;" vertex="1" parent="DdgZDDsIpEVwBnPYaglk-1">
                    <mxGeometry x="560" y="270" width="120" height="60" as="geometry"/>
                </mxCell>
                <mxCell id="1tecws5XsYevQCB5SjMD-12" value="&lt;u&gt;id&lt;/u&gt;" style="ellipse;whiteSpace=wrap;html=1;" vertex="1" parent="DdgZDDsIpEVwBnPYaglk-1">
                    <mxGeometry x="90" y="170" width="60" height="50" as="geometry"/>
                </mxCell>
                <mxCell id="1tecws5XsYevQCB5SjMD-13" value="name" style="ellipse;whiteSpace=wrap;html=1;" vertex="1" parent="DdgZDDsIpEVwBnPYaglk-1">
                    <mxGeometry x="190" y="180" width="60" height="50" as="geometry"/>
                </mxCell>
                <mxCell id="1tecws5XsYevQCB5SjMD-14" value="description" style="ellipse;whiteSpace=wrap;html=1;" vertex="1" parent="DdgZDDsIpEVwBnPYaglk-1">
                    <mxGeometry x="270" y="170" width="70" height="50" as="geometry"/>
                </mxCell>
                <mxCell id="1tecws5XsYevQCB5SjMD-15" value="page_count" style="ellipse;whiteSpace=wrap;html=1;" vertex="1" parent="DdgZDDsIpEVwBnPYaglk-1">
                    <mxGeometry x="80" y="220" width="80" height="50" as="geometry"/>
                </mxCell>
                <mxCell id="1tecws5XsYevQCB5SjMD-20" value="&lt;u&gt;fk_author_id&lt;/u&gt;" style="ellipse;whiteSpace=wrap;html=1;" vertex="1" parent="DdgZDDsIpEVwBnPYaglk-1">
                    <mxGeometry x="240" y="360" width="80" height="50" as="geometry"/>
                </mxCell>
                <mxCell id="1tecws5XsYevQCB5SjMD-21" value="&lt;u&gt;fk_genre_id&lt;/u&gt;" style="ellipse;whiteSpace=wrap;html=1;" vertex="1" parent="DdgZDDsIpEVwBnPYaglk-1">
                    <mxGeometry x="140" y="360" width="80" height="50" as="geometry"/>
                </mxCell>
                <mxCell id="1tecws5XsYevQCB5SjMD-22" value="&lt;u&gt;fk_publisher_id&lt;/u&gt;" style="ellipse;whiteSpace=wrap;html=1;" vertex="1" parent="DdgZDDsIpEVwBnPYaglk-1">
                    <mxGeometry x="20" y="360" width="100" height="50" as="geometry"/>
                </mxCell>
                <mxCell id="1tecws5XsYevQCB5SjMD-26" value="&lt;u&gt;id&lt;/u&gt;" style="ellipse;whiteSpace=wrap;html=1;" vertex="1" parent="DdgZDDsIpEVwBnPYaglk-1">
                    <mxGeometry x="505" y="120" width="60" height="50" as="geometry"/>
                </mxCell>
                <mxCell id="1tecws5XsYevQCB5SjMD-27" value="name" style="ellipse;whiteSpace=wrap;html=1;" vertex="1" parent="DdgZDDsIpEVwBnPYaglk-1">
                    <mxGeometry x="585" y="100" width="60" height="50" as="geometry"/>
                </mxCell>
                <mxCell id="1tecws5XsYevQCB5SjMD-29" value="&lt;u&gt;id&lt;/u&gt;" style="ellipse;whiteSpace=wrap;html=1;" vertex="1" parent="DdgZDDsIpEVwBnPYaglk-1">
                    <mxGeometry x="720" y="220" width="60" height="50" as="geometry"/>
                </mxCell>
                <mxCell id="1tecws5XsYevQCB5SjMD-30" value="name" style="ellipse;whiteSpace=wrap;html=1;" vertex="1" parent="DdgZDDsIpEVwBnPYaglk-1">
                    <mxGeometry x="720" y="300" width="60" height="50" as="geometry"/>
                </mxCell>
                <mxCell id="1tecws5XsYevQCB5SjMD-32" value="&lt;u&gt;id&lt;/u&gt;" style="ellipse;whiteSpace=wrap;html=1;" vertex="1" parent="DdgZDDsIpEVwBnPYaglk-1">
                    <mxGeometry x="515" y="454.5" width="60" height="50" as="geometry"/>
                </mxCell>
                <mxCell id="1tecws5XsYevQCB5SjMD-33" value="first_name" style="ellipse;whiteSpace=wrap;html=1;" vertex="1" parent="DdgZDDsIpEVwBnPYaglk-1">
                    <mxGeometry x="585" y="454.5" width="60" height="50" as="geometry"/>
                </mxCell>
                <mxCell id="1tecws5XsYevQCB5SjMD-34" value="last_name" style="ellipse;whiteSpace=wrap;html=1;" vertex="1" parent="DdgZDDsIpEVwBnPYaglk-1">
                    <mxGeometry x="665" y="454.5" width="60" height="50" as="geometry"/>
                </mxCell>
                <mxCell id="1tecws5XsYevQCB5SjMD-42" value="buy_date" style="ellipse;whiteSpace=wrap;html=1;" vertex="1" parent="DdgZDDsIpEVwBnPYaglk-1">
                    <mxGeometry x="330" y="360" width="70" height="50" as="geometry"/>
                </mxCell>
                <mxCell id="1tecws5XsYevQCB5SjMD-44" value="reading_end" style="ellipse;whiteSpace=wrap;html=1;" vertex="1" parent="DdgZDDsIpEVwBnPYaglk-1">
                    <mxGeometry x="405" y="360" width="100" height="50" as="geometry"/>
                </mxCell>
                <mxCell id="1tecws5XsYevQCB5SjMD-45" value="reading_start" style="ellipse;whiteSpace=wrap;html=1;" vertex="1" parent="DdgZDDsIpEVwBnPYaglk-1">
                    <mxGeometry x="340" y="190" width="100" height="50" as="geometry"/>
                </mxCell>
                <mxCell id="HjsKLD6jBDiNcL0R35gu-6" style="edgeStyle=orthogonalEdgeStyle;html=1;entryX=0;entryY=0.5;entryDx=0;entryDy=0;endArrow=classic;endFill=1;" edge="1" parent="DdgZDDsIpEVwBnPYaglk-1" source="HjsKLD6jBDiNcL0R35gu-0" target="HjsKLD6jBDiNcL0R35gu-5">
                    <mxGeometry relative="1" as="geometry"/>
                </mxCell>
                <mxCell id="HjsKLD6jBDiNcL0R35gu-8" style="html=1;entryX=0.5;entryY=1;entryDx=0;entryDy=0;endArrow=classic;endFill=1;" edge="1" parent="DdgZDDsIpEVwBnPYaglk-1" source="HjsKLD6jBDiNcL0R35gu-0" target="HjsKLD6jBDiNcL0R35gu-3">
                    <mxGeometry relative="1" as="geometry"/>
                </mxCell>
                <mxCell id="HjsKLD6jBDiNcL0R35gu-9" style="html=1;entryX=0.5;entryY=1;entryDx=0;entryDy=0;endArrow=classic;endFill=1;" edge="1" parent="DdgZDDsIpEVwBnPYaglk-1" source="HjsKLD6jBDiNcL0R35gu-0" target="HjsKLD6jBDiNcL0R35gu-2">
                    <mxGeometry relative="1" as="geometry"/>
                </mxCell>
                <mxCell id="HjsKLD6jBDiNcL0R35gu-10" style="html=1;entryX=0.5;entryY=1;entryDx=0;entryDy=0;endArrow=classic;endFill=1;" edge="1" parent="DdgZDDsIpEVwBnPYaglk-1" source="HjsKLD6jBDiNcL0R35gu-0" target="HjsKLD6jBDiNcL0R35gu-1">
                    <mxGeometry relative="1" as="geometry"/>
                </mxCell>
                <mxCell id="HjsKLD6jBDiNcL0R35gu-13" style="edgeStyle=none;html=1;entryX=0.5;entryY=0;entryDx=0;entryDy=0;endArrow=classic;endFill=1;" edge="1" parent="DdgZDDsIpEVwBnPYaglk-1" source="HjsKLD6jBDiNcL0R35gu-0" target="HjsKLD6jBDiNcL0R35gu-11">
                    <mxGeometry relative="1" as="geometry"/>
                </mxCell>
                <mxCell id="HjsKLD6jBDiNcL0R35gu-16" style="edgeStyle=none;html=1;endArrow=classic;endFill=1;" edge="1" parent="DdgZDDsIpEVwBnPYaglk-1" target="HjsKLD6jBDiNcL0R35gu-15">
                    <mxGeometry relative="1" as="geometry">
                        <mxPoint x="-140" y="399.99683392015237" as="sourcePoint"/>
                    </mxGeometry>
                </mxCell>
                <mxCell id="8eTOCfIoejH3APp0xrF4-1" style="edgeStyle=none;html=1;endArrow=classic;endFill=1;" edge="1" parent="DdgZDDsIpEVwBnPYaglk-1" source="HjsKLD6jBDiNcL0R35gu-0" target="8eTOCfIoejH3APp0xrF4-0">
                    <mxGeometry relative="1" as="geometry"/>
                </mxCell>
                <mxCell id="HjsKLD6jBDiNcL0R35gu-0" value="customer" style="rounded=1;whiteSpace=wrap;html=1;" vertex="1" parent="DdgZDDsIpEVwBnPYaglk-1">
                    <mxGeometry x="-160" y="270" width="120" height="60" as="geometry"/>
                </mxCell>
                <mxCell id="HjsKLD6jBDiNcL0R35gu-1" value="&lt;u&gt;id&lt;/u&gt;" style="ellipse;whiteSpace=wrap;html=1;" vertex="1" parent="DdgZDDsIpEVwBnPYaglk-1">
                    <mxGeometry x="-220" y="180" width="60" height="50" as="geometry"/>
                </mxCell>
                <mxCell id="HjsKLD6jBDiNcL0R35gu-2" value="first_name" style="ellipse;whiteSpace=wrap;html=1;" vertex="1" parent="DdgZDDsIpEVwBnPYaglk-1">
                    <mxGeometry x="-150" y="180" width="60" height="50" as="geometry"/>
                </mxCell>
                <mxCell id="HjsKLD6jBDiNcL0R35gu-3" value="last_name" style="ellipse;whiteSpace=wrap;html=1;" vertex="1" parent="DdgZDDsIpEVwBnPYaglk-1">
                    <mxGeometry x="-80" y="180" width="60" height="50" as="geometry"/>
                </mxCell>
                <mxCell id="HjsKLD6jBDiNcL0R35gu-7" style="edgeStyle=orthogonalEdgeStyle;html=1;entryX=0;entryY=0.5;entryDx=0;entryDy=0;endArrow=classic;endFill=1;" edge="1" parent="DdgZDDsIpEVwBnPYaglk-1" source="HjsKLD6jBDiNcL0R35gu-5" target="lZ5tawJ0SZ7jda7Gi2ym-0">
                    <mxGeometry relative="1" as="geometry"/>
                </mxCell>
                <mxCell id="HjsKLD6jBDiNcL0R35gu-5" value="buys" style="rhombus;whiteSpace=wrap;html=1;" vertex="1" parent="DdgZDDsIpEVwBnPYaglk-1">
                    <mxGeometry y="260" width="80" height="80" as="geometry"/>
                </mxCell>
                <mxCell id="HjsKLD6jBDiNcL0R35gu-18" style="edgeStyle=none;html=1;entryX=0.5;entryY=0;entryDx=0;entryDy=0;endArrow=classic;endFill=1;" edge="1" parent="DdgZDDsIpEVwBnPYaglk-1" source="HjsKLD6jBDiNcL0R35gu-11" target="HjsKLD6jBDiNcL0R35gu-14">
                    <mxGeometry relative="1" as="geometry"/>
                </mxCell>
                <mxCell id="HjsKLD6jBDiNcL0R35gu-11" value="lives at" style="rhombus;whiteSpace=wrap;html=1;" vertex="1" parent="DdgZDDsIpEVwBnPYaglk-1">
                    <mxGeometry x="-140" y="360" width="80" height="80" as="geometry"/>
                </mxCell>
                <mxCell id="HjsKLD6jBDiNcL0R35gu-19" style="edgeStyle=none;html=1;entryX=1;entryY=0.5;entryDx=0;entryDy=0;endArrow=classic;endFill=1;" edge="1" parent="DdgZDDsIpEVwBnPYaglk-1" source="HjsKLD6jBDiNcL0R35gu-14" target="HjsKLD6jBDiNcL0R35gu-17">
                    <mxGeometry relative="1" as="geometry"/>
                </mxCell>
                <mxCell id="8eTOCfIoejH3APp0xrF4-2" style="edgeStyle=none;html=1;endArrow=classic;endFill=1;" edge="1" parent="DdgZDDsIpEVwBnPYaglk-1" source="HjsKLD6jBDiNcL0R35gu-14" target="HjsKLD6jBDiNcL0R35gu-23">
                    <mxGeometry relative="1" as="geometry"/>
                </mxCell>
                <mxCell id="8eTOCfIoejH3APp0xrF4-3" style="edgeStyle=none;html=1;entryX=0;entryY=0;entryDx=0;entryDy=0;endArrow=classic;endFill=1;" edge="1" parent="DdgZDDsIpEVwBnPYaglk-1" source="HjsKLD6jBDiNcL0R35gu-14" target="HjsKLD6jBDiNcL0R35gu-22">
                    <mxGeometry relative="1" as="geometry"/>
                </mxCell>
                <mxCell id="8eTOCfIoejH3APp0xrF4-4" style="edgeStyle=none;html=1;endArrow=classic;endFill=1;" edge="1" parent="DdgZDDsIpEVwBnPYaglk-1" source="HjsKLD6jBDiNcL0R35gu-14" target="HjsKLD6jBDiNcL0R35gu-21">
                    <mxGeometry relative="1" as="geometry"/>
                </mxCell>
                <mxCell id="8eTOCfIoejH3APp0xrF4-5" style="edgeStyle=none;html=1;entryX=1;entryY=0;entryDx=0;entryDy=0;endArrow=classic;endFill=1;" edge="1" parent="DdgZDDsIpEVwBnPYaglk-1" source="HjsKLD6jBDiNcL0R35gu-14" target="HjsKLD6jBDiNcL0R35gu-20">
                    <mxGeometry relative="1" as="geometry"/>
                </mxCell>
                <mxCell id="HjsKLD6jBDiNcL0R35gu-14" value="adress" style="rounded=1;whiteSpace=wrap;html=1;" vertex="1" parent="DdgZDDsIpEVwBnPYaglk-1">
                    <mxGeometry x="-160" y="480" width="120" height="60" as="geometry"/>
                </mxCell>
                <mxCell id="HjsKLD6jBDiNcL0R35gu-15" value="adress_id" style="ellipse;whiteSpace=wrap;html=1;" vertex="1" parent="DdgZDDsIpEVwBnPYaglk-1">
                    <mxGeometry x="-230" y="402.45" width="60" height="50" as="geometry"/>
                </mxCell>
                <mxCell id="HjsKLD6jBDiNcL0R35gu-17" value="id" style="ellipse;whiteSpace=wrap;html=1;" vertex="1" parent="DdgZDDsIpEVwBnPYaglk-1">
                    <mxGeometry x="-260" y="485" width="60" height="50" as="geometry"/>
                </mxCell>
                <mxCell id="HjsKLD6jBDiNcL0R35gu-20" value="zip_code" style="ellipse;whiteSpace=wrap;html=1;" vertex="1" parent="DdgZDDsIpEVwBnPYaglk-1">
                    <mxGeometry x="-250" y="560" width="60" height="50" as="geometry"/>
                </mxCell>
                <mxCell id="HjsKLD6jBDiNcL0R35gu-21" value="city" style="ellipse;whiteSpace=wrap;html=1;" vertex="1" parent="DdgZDDsIpEVwBnPYaglk-1">
                    <mxGeometry x="-170" y="560" width="60" height="50" as="geometry"/>
                </mxCell>
                <mxCell id="HjsKLD6jBDiNcL0R35gu-22" value="street_name" style="ellipse;whiteSpace=wrap;html=1;" vertex="1" parent="DdgZDDsIpEVwBnPYaglk-1">
                    <mxGeometry x="-90" y="560" width="100" height="50" as="geometry"/>
                </mxCell>
                <mxCell id="HjsKLD6jBDiNcL0R35gu-23" value="street_number" style="ellipse;whiteSpace=wrap;html=1;" vertex="1" parent="DdgZDDsIpEVwBnPYaglk-1">
                    <mxGeometry x="-20" y="500" width="100" height="50" as="geometry"/>
                </mxCell>
                <mxCell id="8eTOCfIoejH3APp0xrF4-0" value="email" style="ellipse;whiteSpace=wrap;html=1;" vertex="1" parent="DdgZDDsIpEVwBnPYaglk-1">
                    <mxGeometry x="-270" y="270" width="60" height="50" as="geometry"/>
                </mxCell>
            </root>
        </mxGraphModel>
    </diagram>
    <diagram id="yWZfBCoelyxAUZk2inFl" name="Page-3">
        <mxGraphModel dx="615" dy="503" grid="1" gridSize="10" guides="1" tooltips="1" connect="1" arrows="1" fold="1" page="1" pageScale="1" pageWidth="827" pageHeight="1169" math="0" shadow="0">
            <root>
                <mxCell id="fdkaVE5j47vM1NWYZ1Wh-0"/>
                <mxCell id="fdkaVE5j47vM1NWYZ1Wh-1" parent="fdkaVE5j47vM1NWYZ1Wh-0"/>
                <mxCell id="JpBAq99MU2OiuL4t4qaJ-1" value="book" style="swimlane;fontStyle=0;childLayout=stackLayout;horizontal=1;startSize=30;horizontalStack=0;resizeParent=1;resizeParentMax=0;resizeLast=0;collapsible=1;marginBottom=0;" vertex="1" parent="fdkaVE5j47vM1NWYZ1Wh-1">
                    <mxGeometry x="380" y="80" width="140" height="330" as="geometry"/>
                </mxCell>
                <mxCell id="JpBAq99MU2OiuL4t4qaJ-2" value="id int PK" style="text;strokeColor=none;fillColor=none;align=left;verticalAlign=middle;spacingLeft=4;spacingRight=4;overflow=hidden;points=[[0,0.5],[1,0.5]];portConstraint=eastwest;rotatable=0;" vertex="1" parent="JpBAq99MU2OiuL4t4qaJ-1">
                    <mxGeometry y="30" width="140" height="30" as="geometry"/>
                </mxCell>
                <mxCell id="JpBAq99MU2OiuL4t4qaJ-3" value="name varchar" style="text;strokeColor=none;fillColor=none;align=left;verticalAlign=middle;spacingLeft=4;spacingRight=4;overflow=hidden;points=[[0,0.5],[1,0.5]];portConstraint=eastwest;rotatable=0;" vertex="1" parent="JpBAq99MU2OiuL4t4qaJ-1">
                    <mxGeometry y="60" width="140" height="30" as="geometry"/>
                </mxCell>
                <mxCell id="JpBAq99MU2OiuL4t4qaJ-4" value="description varchar" style="text;strokeColor=none;fillColor=none;align=left;verticalAlign=middle;spacingLeft=4;spacingRight=4;overflow=hidden;points=[[0,0.5],[1,0.5]];portConstraint=eastwest;rotatable=0;" vertex="1" parent="JpBAq99MU2OiuL4t4qaJ-1">
                    <mxGeometry y="90" width="140" height="30" as="geometry"/>
                </mxCell>
                <mxCell id="gjIiaauoeCaLUngk4NBg-43" value="page_count int" style="text;strokeColor=none;fillColor=none;align=left;verticalAlign=middle;spacingLeft=4;spacingRight=4;overflow=hidden;points=[[0,0.5],[1,0.5]];portConstraint=eastwest;rotatable=0;" vertex="1" parent="JpBAq99MU2OiuL4t4qaJ-1">
                    <mxGeometry y="120" width="140" height="30" as="geometry"/>
                </mxCell>
                <mxCell id="gjIiaauoeCaLUngk4NBg-44" value="reading_start datetime" style="text;strokeColor=none;fillColor=none;align=left;verticalAlign=middle;spacingLeft=4;spacingRight=4;overflow=hidden;points=[[0,0.5],[1,0.5]];portConstraint=eastwest;rotatable=0;" vertex="1" parent="JpBAq99MU2OiuL4t4qaJ-1">
                    <mxGeometry y="150" width="140" height="30" as="geometry"/>
                </mxCell>
                <mxCell id="gjIiaauoeCaLUngk4NBg-45" value="reading_end datetime" style="text;strokeColor=none;fillColor=none;align=left;verticalAlign=middle;spacingLeft=4;spacingRight=4;overflow=hidden;points=[[0,0.5],[1,0.5]];portConstraint=eastwest;rotatable=0;" vertex="1" parent="JpBAq99MU2OiuL4t4qaJ-1">
                    <mxGeometry y="180" width="140" height="30" as="geometry"/>
                </mxCell>
                <mxCell id="gjIiaauoeCaLUngk4NBg-46" value="purchase_date datetime" style="text;strokeColor=none;fillColor=none;align=left;verticalAlign=middle;spacingLeft=4;spacingRight=4;overflow=hidden;points=[[0,0.5],[1,0.5]];portConstraint=eastwest;rotatable=0;" vertex="1" parent="JpBAq99MU2OiuL4t4qaJ-1">
                    <mxGeometry y="210" width="140" height="30" as="geometry"/>
                </mxCell>
                <mxCell id="gjIiaauoeCaLUngk4NBg-47" value="fk_publisher_id int " style="text;strokeColor=none;fillColor=none;align=left;verticalAlign=middle;spacingLeft=4;spacingRight=4;overflow=hidden;points=[[0,0.5],[1,0.5]];portConstraint=eastwest;rotatable=0;" vertex="1" parent="JpBAq99MU2OiuL4t4qaJ-1">
                    <mxGeometry y="240" width="140" height="30" as="geometry"/>
                </mxCell>
                <mxCell id="gjIiaauoeCaLUngk4NBg-48" value="fk_genre_id int" style="text;strokeColor=none;fillColor=none;align=left;verticalAlign=middle;spacingLeft=4;spacingRight=4;overflow=hidden;points=[[0,0.5],[1,0.5]];portConstraint=eastwest;rotatable=0;" vertex="1" parent="JpBAq99MU2OiuL4t4qaJ-1">
                    <mxGeometry y="270" width="140" height="30" as="geometry"/>
                </mxCell>
                <mxCell id="gjIiaauoeCaLUngk4NBg-49" value="fk_author_id int" style="text;strokeColor=none;fillColor=none;align=left;verticalAlign=middle;spacingLeft=4;spacingRight=4;overflow=hidden;points=[[0,0.5],[1,0.5]];portConstraint=eastwest;rotatable=0;" vertex="1" parent="JpBAq99MU2OiuL4t4qaJ-1">
                    <mxGeometry y="300" width="140" height="30" as="geometry"/>
                </mxCell>
                <mxCell id="gjIiaauoeCaLUngk4NBg-50" value="publisher" style="swimlane;fontStyle=0;childLayout=stackLayout;horizontal=1;startSize=30;horizontalStack=0;resizeParent=1;resizeParentMax=0;resizeLast=0;collapsible=1;marginBottom=0;" vertex="1" parent="fdkaVE5j47vM1NWYZ1Wh-1">
                    <mxGeometry x="600" y="80" width="140" height="90" as="geometry"/>
                </mxCell>
                <mxCell id="gjIiaauoeCaLUngk4NBg-51" value="id int PK" style="text;strokeColor=none;fillColor=none;align=left;verticalAlign=middle;spacingLeft=4;spacingRight=4;overflow=hidden;points=[[0,0.5],[1,0.5]];portConstraint=eastwest;rotatable=0;" vertex="1" parent="gjIiaauoeCaLUngk4NBg-50">
                    <mxGeometry y="30" width="140" height="30" as="geometry"/>
                </mxCell>
                <mxCell id="gjIiaauoeCaLUngk4NBg-52" value="name varchar" style="text;strokeColor=none;fillColor=none;align=left;verticalAlign=middle;spacingLeft=4;spacingRight=4;overflow=hidden;points=[[0,0.5],[1,0.5]];portConstraint=eastwest;rotatable=0;" vertex="1" parent="gjIiaauoeCaLUngk4NBg-50">
                    <mxGeometry y="60" width="140" height="30" as="geometry"/>
                </mxCell>
                <mxCell id="gjIiaauoeCaLUngk4NBg-62" style="edgeStyle=orthogonalEdgeStyle;html=1;entryX=1;entryY=0.5;entryDx=0;entryDy=0;endArrow=none;endFill=0;" edge="1" parent="fdkaVE5j47vM1NWYZ1Wh-1" source="gjIiaauoeCaLUngk4NBg-51" target="gjIiaauoeCaLUngk4NBg-47">
                    <mxGeometry relative="1" as="geometry">
                        <Array as="points">
                            <mxPoint x="540" y="125"/>
                            <mxPoint x="540" y="335"/>
                        </Array>
                    </mxGeometry>
                </mxCell>
                <mxCell id="gjIiaauoeCaLUngk4NBg-63" value="genre" style="swimlane;fontStyle=0;childLayout=stackLayout;horizontal=1;startSize=30;horizontalStack=0;resizeParent=1;resizeParentMax=0;resizeLast=0;collapsible=1;marginBottom=0;" vertex="1" parent="fdkaVE5j47vM1NWYZ1Wh-1">
                    <mxGeometry x="600" y="180" width="140" height="90" as="geometry"/>
                </mxCell>
                <mxCell id="gjIiaauoeCaLUngk4NBg-64" value="id int PK" style="text;strokeColor=none;fillColor=none;align=left;verticalAlign=middle;spacingLeft=4;spacingRight=4;overflow=hidden;points=[[0,0.5],[1,0.5]];portConstraint=eastwest;rotatable=0;" vertex="1" parent="gjIiaauoeCaLUngk4NBg-63">
                    <mxGeometry y="30" width="140" height="30" as="geometry"/>
                </mxCell>
                <mxCell id="gjIiaauoeCaLUngk4NBg-65" value="name varchar" style="text;strokeColor=none;fillColor=none;align=left;verticalAlign=middle;spacingLeft=4;spacingRight=4;overflow=hidden;points=[[0,0.5],[1,0.5]];portConstraint=eastwest;rotatable=0;" vertex="1" parent="gjIiaauoeCaLUngk4NBg-63">
                    <mxGeometry y="60" width="140" height="30" as="geometry"/>
                </mxCell>
                <mxCell id="gjIiaauoeCaLUngk4NBg-66" style="edgeStyle=orthogonalEdgeStyle;html=1;entryX=1;entryY=0.5;entryDx=0;entryDy=0;endArrow=none;endFill=0;exitX=0;exitY=0.5;exitDx=0;exitDy=0;" edge="1" parent="fdkaVE5j47vM1NWYZ1Wh-1" source="gjIiaauoeCaLUngk4NBg-64" target="gjIiaauoeCaLUngk4NBg-48">
                    <mxGeometry relative="1" as="geometry">
                        <Array as="points">
                            <mxPoint x="550" y="225"/>
                            <mxPoint x="550" y="365"/>
                        </Array>
                    </mxGeometry>
                </mxCell>
                <mxCell id="gjIiaauoeCaLUngk4NBg-67" value="genre" style="swimlane;fontStyle=0;childLayout=stackLayout;horizontal=1;startSize=30;horizontalStack=0;resizeParent=1;resizeParentMax=0;resizeLast=0;collapsible=1;marginBottom=0;" vertex="1" parent="fdkaVE5j47vM1NWYZ1Wh-1">
                    <mxGeometry x="600" y="280" width="140" height="120" as="geometry"/>
                </mxCell>
                <mxCell id="gjIiaauoeCaLUngk4NBg-68" value="id int PK" style="text;strokeColor=none;fillColor=none;align=left;verticalAlign=middle;spacingLeft=4;spacingRight=4;overflow=hidden;points=[[0,0.5],[1,0.5]];portConstraint=eastwest;rotatable=0;" vertex="1" parent="gjIiaauoeCaLUngk4NBg-67">
                    <mxGeometry y="30" width="140" height="30" as="geometry"/>
                </mxCell>
                <mxCell id="gjIiaauoeCaLUngk4NBg-69" value="first_name varchar" style="text;strokeColor=none;fillColor=none;align=left;verticalAlign=middle;spacingLeft=4;spacingRight=4;overflow=hidden;points=[[0,0.5],[1,0.5]];portConstraint=eastwest;rotatable=0;" vertex="1" parent="gjIiaauoeCaLUngk4NBg-67">
                    <mxGeometry y="60" width="140" height="30" as="geometry"/>
                </mxCell>
                <mxCell id="gjIiaauoeCaLUngk4NBg-71" value="last_name varchar" style="text;strokeColor=none;fillColor=none;align=left;verticalAlign=middle;spacingLeft=4;spacingRight=4;overflow=hidden;points=[[0,0.5],[1,0.5]];portConstraint=eastwest;rotatable=0;" vertex="1" parent="gjIiaauoeCaLUngk4NBg-67">
                    <mxGeometry y="90" width="140" height="30" as="geometry"/>
                </mxCell>
                <mxCell id="gjIiaauoeCaLUngk4NBg-70" style="edgeStyle=orthogonalEdgeStyle;html=1;entryX=1;entryY=0.5;entryDx=0;entryDy=0;endArrow=none;endFill=0;" edge="1" parent="fdkaVE5j47vM1NWYZ1Wh-1" source="gjIiaauoeCaLUngk4NBg-68" target="gjIiaauoeCaLUngk4NBg-49">
                    <mxGeometry relative="1" as="geometry"/>
                </mxCell>
                <mxCell id="uBooD_Cxy8r13EaPxzv9-0" value="customer" style="swimlane;fontStyle=0;childLayout=stackLayout;horizontal=1;startSize=30;horizontalStack=0;resizeParent=1;resizeParentMax=0;resizeLast=0;collapsible=1;marginBottom=0;" vertex="1" parent="fdkaVE5j47vM1NWYZ1Wh-1">
                    <mxGeometry x="180" y="80" width="140" height="210" as="geometry"/>
                </mxCell>
                <mxCell id="uBooD_Cxy8r13EaPxzv9-1" value="id int PK" style="text;strokeColor=none;fillColor=none;align=left;verticalAlign=middle;spacingLeft=4;spacingRight=4;overflow=hidden;points=[[0,0.5],[1,0.5]];portConstraint=eastwest;rotatable=0;" vertex="1" parent="uBooD_Cxy8r13EaPxzv9-0">
                    <mxGeometry y="30" width="140" height="30" as="geometry"/>
                </mxCell>
                <mxCell id="uBooD_Cxy8r13EaPxzv9-2" value="first_name varchar" style="text;strokeColor=none;fillColor=none;align=left;verticalAlign=middle;spacingLeft=4;spacingRight=4;overflow=hidden;points=[[0,0.5],[1,0.5]];portConstraint=eastwest;rotatable=0;" vertex="1" parent="uBooD_Cxy8r13EaPxzv9-0">
                    <mxGeometry y="60" width="140" height="30" as="geometry"/>
                </mxCell>
                <mxCell id="uBooD_Cxy8r13EaPxzv9-3" value="last_name varchar" style="text;strokeColor=none;fillColor=none;align=left;verticalAlign=middle;spacingLeft=4;spacingRight=4;overflow=hidden;points=[[0,0.5],[1,0.5]];portConstraint=eastwest;rotatable=0;" vertex="1" parent="uBooD_Cxy8r13EaPxzv9-0">
                    <mxGeometry y="90" width="140" height="30" as="geometry"/>
                </mxCell>
                <mxCell id="uBooD_Cxy8r13EaPxzv9-5" value="email varchar" style="text;strokeColor=none;fillColor=none;align=left;verticalAlign=middle;spacingLeft=4;spacingRight=4;overflow=hidden;points=[[0,0.5],[1,0.5]];portConstraint=eastwest;rotatable=0;" vertex="1" parent="uBooD_Cxy8r13EaPxzv9-0">
                    <mxGeometry y="120" width="140" height="30" as="geometry"/>
                </mxCell>
                <mxCell id="uBooD_Cxy8r13EaPxzv9-6" value="fk_adress_id int" style="text;strokeColor=none;fillColor=none;align=left;verticalAlign=middle;spacingLeft=4;spacingRight=4;overflow=hidden;points=[[0,0.5],[1,0.5]];portConstraint=eastwest;rotatable=0;" vertex="1" parent="uBooD_Cxy8r13EaPxzv9-0">
                    <mxGeometry y="150" width="140" height="30" as="geometry"/>
                </mxCell>
                <mxCell id="ABc66t0M-nYhJU4sptaQ-3" value="fk_book_id int" style="text;strokeColor=none;fillColor=none;align=left;verticalAlign=middle;spacingLeft=4;spacingRight=4;overflow=hidden;points=[[0,0.5],[1,0.5]];portConstraint=eastwest;rotatable=0;" vertex="1" parent="uBooD_Cxy8r13EaPxzv9-0">
                    <mxGeometry y="180" width="140" height="30" as="geometry"/>
                </mxCell>
                <mxCell id="ABc66t0M-nYhJU4sptaQ-6" style="edgeStyle=orthogonalEdgeStyle;html=1;entryX=1;entryY=0.5;entryDx=0;entryDy=0;endArrow=none;endFill=0;" edge="1" parent="fdkaVE5j47vM1NWYZ1Wh-1" source="JpBAq99MU2OiuL4t4qaJ-2" target="ABc66t0M-nYhJU4sptaQ-3">
                    <mxGeometry relative="1" as="geometry"/>
                </mxCell>
            </root>
        </mxGraphModel>
    </diagram>
    <diagram id="IBqQPbC5ak88MKJFh3Sc" name="Page-4">
        <mxGraphModel dx="584" dy="478" grid="1" gridSize="10" guides="1" tooltips="1" connect="1" arrows="1" fold="1" page="1" pageScale="1" pageWidth="827" pageHeight="1169" math="0" shadow="0">
            <root>
                <mxCell id="S9eWWkhhtJV0iPA5VZvU-0"/>
                <mxCell id="S9eWWkhhtJV0iPA5VZvU-1" parent="S9eWWkhhtJV0iPA5VZvU-0"/>
                <mxCell id="6APtTj6C8hcBS1E86HDg-0" value="adress" style="swimlane;fontStyle=0;childLayout=stackLayout;horizontal=1;startSize=30;horizontalStack=0;resizeParent=1;resizeParentMax=0;resizeLast=0;collapsible=1;marginBottom=0;" vertex="1" parent="S9eWWkhhtJV0iPA5VZvU-1">
                    <mxGeometry x="10" y="80" width="140" height="180" as="geometry"/>
                </mxCell>
                <mxCell id="6APtTj6C8hcBS1E86HDg-1" value="id int PK" style="text;strokeColor=none;fillColor=none;align=left;verticalAlign=middle;spacingLeft=4;spacingRight=4;overflow=hidden;points=[[0,0.5],[1,0.5]];portConstraint=eastwest;rotatable=0;" vertex="1" parent="6APtTj6C8hcBS1E86HDg-0">
                    <mxGeometry y="30" width="140" height="30" as="geometry"/>
                </mxCell>
                <mxCell id="6APtTj6C8hcBS1E86HDg-2" value="zip_code int" style="text;strokeColor=none;fillColor=none;align=left;verticalAlign=middle;spacingLeft=4;spacingRight=4;overflow=hidden;points=[[0,0.5],[1,0.5]];portConstraint=eastwest;rotatable=0;" vertex="1" parent="6APtTj6C8hcBS1E86HDg-0">
                    <mxGeometry y="60" width="140" height="30" as="geometry"/>
                </mxCell>
                <mxCell id="6APtTj6C8hcBS1E86HDg-3" value="city varchar" style="text;strokeColor=none;fillColor=none;align=left;verticalAlign=middle;spacingLeft=4;spacingRight=4;overflow=hidden;points=[[0,0.5],[1,0.5]];portConstraint=eastwest;rotatable=0;" vertex="1" parent="6APtTj6C8hcBS1E86HDg-0">
                    <mxGeometry y="90" width="140" height="30" as="geometry"/>
                </mxCell>
                <mxCell id="6APtTj6C8hcBS1E86HDg-4" value="street_name varchar" style="text;strokeColor=none;fillColor=none;align=left;verticalAlign=middle;spacingLeft=4;spacingRight=4;overflow=hidden;points=[[0,0.5],[1,0.5]];portConstraint=eastwest;rotatable=0;" vertex="1" parent="6APtTj6C8hcBS1E86HDg-0">
                    <mxGeometry y="120" width="140" height="30" as="geometry"/>
                </mxCell>
                <mxCell id="6APtTj6C8hcBS1E86HDg-5" value="street_number int" style="text;strokeColor=none;fillColor=none;align=left;verticalAlign=middle;spacingLeft=4;spacingRight=4;overflow=hidden;points=[[0,0.5],[1,0.5]];portConstraint=eastwest;rotatable=0;" vertex="1" parent="6APtTj6C8hcBS1E86HDg-0">
                    <mxGeometry y="150" width="140" height="30" as="geometry"/>
                </mxCell>
                <mxCell id="6APtTj6C8hcBS1E86HDg-6" style="edgeStyle=orthogonalEdgeStyle;html=1;entryX=0;entryY=0.5;entryDx=0;entryDy=0;endArrow=none;endFill=0;" edge="1" parent="S9eWWkhhtJV0iPA5VZvU-1" source="6APtTj6C8hcBS1E86HDg-1" target="wg7V2_wbMAx8qBibMr6h-61">
                    <mxGeometry relative="1" as="geometry">
                        <mxPoint x="180" y="245.0000000000001" as="targetPoint"/>
                    </mxGeometry>
                </mxCell>
                <mxCell id="wg7V2_wbMAx8qBibMr6h-32" value="book" style="swimlane;fontStyle=0;childLayout=stackLayout;horizontal=1;startSize=30;horizontalStack=0;resizeParent=1;resizeParentMax=0;resizeLast=0;collapsible=1;marginBottom=0;" vertex="1" parent="S9eWWkhhtJV0iPA5VZvU-1">
                    <mxGeometry x="390" y="90" width="140" height="330" as="geometry"/>
                </mxCell>
                <mxCell id="wg7V2_wbMAx8qBibMr6h-33" value="id int PK" style="text;strokeColor=none;fillColor=none;align=left;verticalAlign=middle;spacingLeft=4;spacingRight=4;overflow=hidden;points=[[0,0.5],[1,0.5]];portConstraint=eastwest;rotatable=0;" vertex="1" parent="wg7V2_wbMAx8qBibMr6h-32">
                    <mxGeometry y="30" width="140" height="30" as="geometry"/>
                </mxCell>
                <mxCell id="wg7V2_wbMAx8qBibMr6h-34" value="name varchar" style="text;strokeColor=none;fillColor=none;align=left;verticalAlign=middle;spacingLeft=4;spacingRight=4;overflow=hidden;points=[[0,0.5],[1,0.5]];portConstraint=eastwest;rotatable=0;" vertex="1" parent="wg7V2_wbMAx8qBibMr6h-32">
                    <mxGeometry y="60" width="140" height="30" as="geometry"/>
                </mxCell>
                <mxCell id="wg7V2_wbMAx8qBibMr6h-35" value="description varchar" style="text;strokeColor=none;fillColor=none;align=left;verticalAlign=middle;spacingLeft=4;spacingRight=4;overflow=hidden;points=[[0,0.5],[1,0.5]];portConstraint=eastwest;rotatable=0;" vertex="1" parent="wg7V2_wbMAx8qBibMr6h-32">
                    <mxGeometry y="90" width="140" height="30" as="geometry"/>
                </mxCell>
                <mxCell id="wg7V2_wbMAx8qBibMr6h-36" value="page_count int" style="text;strokeColor=none;fillColor=none;align=left;verticalAlign=middle;spacingLeft=4;spacingRight=4;overflow=hidden;points=[[0,0.5],[1,0.5]];portConstraint=eastwest;rotatable=0;" vertex="1" parent="wg7V2_wbMAx8qBibMr6h-32">
                    <mxGeometry y="120" width="140" height="30" as="geometry"/>
                </mxCell>
                <mxCell id="wg7V2_wbMAx8qBibMr6h-37" value="reading_start datetime" style="text;strokeColor=none;fillColor=none;align=left;verticalAlign=middle;spacingLeft=4;spacingRight=4;overflow=hidden;points=[[0,0.5],[1,0.5]];portConstraint=eastwest;rotatable=0;" vertex="1" parent="wg7V2_wbMAx8qBibMr6h-32">
                    <mxGeometry y="150" width="140" height="30" as="geometry"/>
                </mxCell>
                <mxCell id="wg7V2_wbMAx8qBibMr6h-38" value="reading_end datetime" style="text;strokeColor=none;fillColor=none;align=left;verticalAlign=middle;spacingLeft=4;spacingRight=4;overflow=hidden;points=[[0,0.5],[1,0.5]];portConstraint=eastwest;rotatable=0;" vertex="1" parent="wg7V2_wbMAx8qBibMr6h-32">
                    <mxGeometry y="180" width="140" height="30" as="geometry"/>
                </mxCell>
                <mxCell id="wg7V2_wbMAx8qBibMr6h-39" value="purchase_date datetime" style="text;strokeColor=none;fillColor=none;align=left;verticalAlign=middle;spacingLeft=4;spacingRight=4;overflow=hidden;points=[[0,0.5],[1,0.5]];portConstraint=eastwest;rotatable=0;" vertex="1" parent="wg7V2_wbMAx8qBibMr6h-32">
                    <mxGeometry y="210" width="140" height="30" as="geometry"/>
                </mxCell>
                <mxCell id="wg7V2_wbMAx8qBibMr6h-40" value="fk_publisher_id int " style="text;strokeColor=none;fillColor=none;align=left;verticalAlign=middle;spacingLeft=4;spacingRight=4;overflow=hidden;points=[[0,0.5],[1,0.5]];portConstraint=eastwest;rotatable=0;" vertex="1" parent="wg7V2_wbMAx8qBibMr6h-32">
                    <mxGeometry y="240" width="140" height="30" as="geometry"/>
                </mxCell>
                <mxCell id="wg7V2_wbMAx8qBibMr6h-41" value="fk_genre_id int" style="text;strokeColor=none;fillColor=none;align=left;verticalAlign=middle;spacingLeft=4;spacingRight=4;overflow=hidden;points=[[0,0.5],[1,0.5]];portConstraint=eastwest;rotatable=0;" vertex="1" parent="wg7V2_wbMAx8qBibMr6h-32">
                    <mxGeometry y="270" width="140" height="30" as="geometry"/>
                </mxCell>
                <mxCell id="wg7V2_wbMAx8qBibMr6h-42" value="fk_author_id int" style="text;strokeColor=none;fillColor=none;align=left;verticalAlign=middle;spacingLeft=4;spacingRight=4;overflow=hidden;points=[[0,0.5],[1,0.5]];portConstraint=eastwest;rotatable=0;" vertex="1" parent="wg7V2_wbMAx8qBibMr6h-32">
                    <mxGeometry y="300" width="140" height="30" as="geometry"/>
                </mxCell>
                <mxCell id="wg7V2_wbMAx8qBibMr6h-43" value="publisher" style="swimlane;fontStyle=0;childLayout=stackLayout;horizontal=1;startSize=30;horizontalStack=0;resizeParent=1;resizeParentMax=0;resizeLast=0;collapsible=1;marginBottom=0;" vertex="1" parent="S9eWWkhhtJV0iPA5VZvU-1">
                    <mxGeometry x="610" y="90" width="140" height="90" as="geometry"/>
                </mxCell>
                <mxCell id="wg7V2_wbMAx8qBibMr6h-44" value="id int PK" style="text;strokeColor=none;fillColor=none;align=left;verticalAlign=middle;spacingLeft=4;spacingRight=4;overflow=hidden;points=[[0,0.5],[1,0.5]];portConstraint=eastwest;rotatable=0;" vertex="1" parent="wg7V2_wbMAx8qBibMr6h-43">
                    <mxGeometry y="30" width="140" height="30" as="geometry"/>
                </mxCell>
                <mxCell id="wg7V2_wbMAx8qBibMr6h-45" value="name varchar" style="text;strokeColor=none;fillColor=none;align=left;verticalAlign=middle;spacingLeft=4;spacingRight=4;overflow=hidden;points=[[0,0.5],[1,0.5]];portConstraint=eastwest;rotatable=0;" vertex="1" parent="wg7V2_wbMAx8qBibMr6h-43">
                    <mxGeometry y="60" width="140" height="30" as="geometry"/>
                </mxCell>
                <mxCell id="wg7V2_wbMAx8qBibMr6h-46" style="edgeStyle=orthogonalEdgeStyle;html=1;entryX=1;entryY=0.5;entryDx=0;entryDy=0;endArrow=none;endFill=0;" edge="1" parent="S9eWWkhhtJV0iPA5VZvU-1" source="wg7V2_wbMAx8qBibMr6h-44" target="wg7V2_wbMAx8qBibMr6h-40">
                    <mxGeometry relative="1" as="geometry">
                        <Array as="points">
                            <mxPoint x="550" y="135"/>
                            <mxPoint x="550" y="345"/>
                        </Array>
                    </mxGeometry>
                </mxCell>
                <mxCell id="wg7V2_wbMAx8qBibMr6h-47" value="genre" style="swimlane;fontStyle=0;childLayout=stackLayout;horizontal=1;startSize=30;horizontalStack=0;resizeParent=1;resizeParentMax=0;resizeLast=0;collapsible=1;marginBottom=0;" vertex="1" parent="S9eWWkhhtJV0iPA5VZvU-1">
                    <mxGeometry x="610" y="190" width="140" height="90" as="geometry"/>
                </mxCell>
                <mxCell id="wg7V2_wbMAx8qBibMr6h-48" value="id int PK" style="text;strokeColor=none;fillColor=none;align=left;verticalAlign=middle;spacingLeft=4;spacingRight=4;overflow=hidden;points=[[0,0.5],[1,0.5]];portConstraint=eastwest;rotatable=0;" vertex="1" parent="wg7V2_wbMAx8qBibMr6h-47">
                    <mxGeometry y="30" width="140" height="30" as="geometry"/>
                </mxCell>
                <mxCell id="wg7V2_wbMAx8qBibMr6h-49" value="name varchar" style="text;strokeColor=none;fillColor=none;align=left;verticalAlign=middle;spacingLeft=4;spacingRight=4;overflow=hidden;points=[[0,0.5],[1,0.5]];portConstraint=eastwest;rotatable=0;" vertex="1" parent="wg7V2_wbMAx8qBibMr6h-47">
                    <mxGeometry y="60" width="140" height="30" as="geometry"/>
                </mxCell>
                <mxCell id="wg7V2_wbMAx8qBibMr6h-50" style="edgeStyle=orthogonalEdgeStyle;html=1;entryX=1;entryY=0.5;entryDx=0;entryDy=0;endArrow=none;endFill=0;exitX=0;exitY=0.5;exitDx=0;exitDy=0;" edge="1" parent="S9eWWkhhtJV0iPA5VZvU-1" source="wg7V2_wbMAx8qBibMr6h-48" target="wg7V2_wbMAx8qBibMr6h-41">
                    <mxGeometry relative="1" as="geometry">
                        <Array as="points">
                            <mxPoint x="560" y="235"/>
                            <mxPoint x="560" y="375"/>
                        </Array>
                    </mxGeometry>
                </mxCell>
                <mxCell id="wg7V2_wbMAx8qBibMr6h-51" value="genre" style="swimlane;fontStyle=0;childLayout=stackLayout;horizontal=1;startSize=30;horizontalStack=0;resizeParent=1;resizeParentMax=0;resizeLast=0;collapsible=1;marginBottom=0;" vertex="1" parent="S9eWWkhhtJV0iPA5VZvU-1">
                    <mxGeometry x="610" y="290" width="140" height="120" as="geometry"/>
                </mxCell>
                <mxCell id="wg7V2_wbMAx8qBibMr6h-52" value="id int PK" style="text;strokeColor=none;fillColor=none;align=left;verticalAlign=middle;spacingLeft=4;spacingRight=4;overflow=hidden;points=[[0,0.5],[1,0.5]];portConstraint=eastwest;rotatable=0;" vertex="1" parent="wg7V2_wbMAx8qBibMr6h-51">
                    <mxGeometry y="30" width="140" height="30" as="geometry"/>
                </mxCell>
                <mxCell id="wg7V2_wbMAx8qBibMr6h-53" value="first_name varchar" style="text;strokeColor=none;fillColor=none;align=left;verticalAlign=middle;spacingLeft=4;spacingRight=4;overflow=hidden;points=[[0,0.5],[1,0.5]];portConstraint=eastwest;rotatable=0;" vertex="1" parent="wg7V2_wbMAx8qBibMr6h-51">
                    <mxGeometry y="60" width="140" height="30" as="geometry"/>
                </mxCell>
                <mxCell id="wg7V2_wbMAx8qBibMr6h-54" value="last_name varchar" style="text;strokeColor=none;fillColor=none;align=left;verticalAlign=middle;spacingLeft=4;spacingRight=4;overflow=hidden;points=[[0,0.5],[1,0.5]];portConstraint=eastwest;rotatable=0;" vertex="1" parent="wg7V2_wbMAx8qBibMr6h-51">
                    <mxGeometry y="90" width="140" height="30" as="geometry"/>
                </mxCell>
                <mxCell id="wg7V2_wbMAx8qBibMr6h-55" style="edgeStyle=orthogonalEdgeStyle;html=1;entryX=1;entryY=0.5;entryDx=0;entryDy=0;endArrow=none;endFill=0;" edge="1" parent="S9eWWkhhtJV0iPA5VZvU-1" source="wg7V2_wbMAx8qBibMr6h-52" target="wg7V2_wbMAx8qBibMr6h-42">
                    <mxGeometry relative="1" as="geometry"/>
                </mxCell>
                <mxCell id="wg7V2_wbMAx8qBibMr6h-56" value="customer" style="swimlane;fontStyle=0;childLayout=stackLayout;horizontal=1;startSize=30;horizontalStack=0;resizeParent=1;resizeParentMax=0;resizeLast=0;collapsible=1;marginBottom=0;" vertex="1" parent="S9eWWkhhtJV0iPA5VZvU-1">
                    <mxGeometry x="190" y="90" width="140" height="210" as="geometry"/>
                </mxCell>
                <mxCell id="wg7V2_wbMAx8qBibMr6h-57" value="id int PK" style="text;strokeColor=none;fillColor=none;align=left;verticalAlign=middle;spacingLeft=4;spacingRight=4;overflow=hidden;points=[[0,0.5],[1,0.5]];portConstraint=eastwest;rotatable=0;" vertex="1" parent="wg7V2_wbMAx8qBibMr6h-56">
                    <mxGeometry y="30" width="140" height="30" as="geometry"/>
                </mxCell>
                <mxCell id="wg7V2_wbMAx8qBibMr6h-58" value="first_name varchar" style="text;strokeColor=none;fillColor=none;align=left;verticalAlign=middle;spacingLeft=4;spacingRight=4;overflow=hidden;points=[[0,0.5],[1,0.5]];portConstraint=eastwest;rotatable=0;" vertex="1" parent="wg7V2_wbMAx8qBibMr6h-56">
                    <mxGeometry y="60" width="140" height="30" as="geometry"/>
                </mxCell>
                <mxCell id="wg7V2_wbMAx8qBibMr6h-59" value="last_name varchar" style="text;strokeColor=none;fillColor=none;align=left;verticalAlign=middle;spacingLeft=4;spacingRight=4;overflow=hidden;points=[[0,0.5],[1,0.5]];portConstraint=eastwest;rotatable=0;" vertex="1" parent="wg7V2_wbMAx8qBibMr6h-56">
                    <mxGeometry y="90" width="140" height="30" as="geometry"/>
                </mxCell>
                <mxCell id="wg7V2_wbMAx8qBibMr6h-60" value="email varchar" style="text;strokeColor=none;fillColor=none;align=left;verticalAlign=middle;spacingLeft=4;spacingRight=4;overflow=hidden;points=[[0,0.5],[1,0.5]];portConstraint=eastwest;rotatable=0;" vertex="1" parent="wg7V2_wbMAx8qBibMr6h-56">
                    <mxGeometry y="120" width="140" height="30" as="geometry"/>
                </mxCell>
                <mxCell id="wg7V2_wbMAx8qBibMr6h-61" value="fk_adress_id int" style="text;strokeColor=none;fillColor=none;align=left;verticalAlign=middle;spacingLeft=4;spacingRight=4;overflow=hidden;points=[[0,0.5],[1,0.5]];portConstraint=eastwest;rotatable=0;" vertex="1" parent="wg7V2_wbMAx8qBibMr6h-56">
                    <mxGeometry y="150" width="140" height="30" as="geometry"/>
                </mxCell>
                <mxCell id="wg7V2_wbMAx8qBibMr6h-62" value="fk_book_id int" style="text;strokeColor=none;fillColor=none;align=left;verticalAlign=middle;spacingLeft=4;spacingRight=4;overflow=hidden;points=[[0,0.5],[1,0.5]];portConstraint=eastwest;rotatable=0;" vertex="1" parent="wg7V2_wbMAx8qBibMr6h-56">
                    <mxGeometry y="180" width="140" height="30" as="geometry"/>
                </mxCell>
                <mxCell id="wg7V2_wbMAx8qBibMr6h-63" style="edgeStyle=orthogonalEdgeStyle;html=1;entryX=1;entryY=0.5;entryDx=0;entryDy=0;endArrow=none;endFill=0;" edge="1" parent="S9eWWkhhtJV0iPA5VZvU-1" source="wg7V2_wbMAx8qBibMr6h-33" target="wg7V2_wbMAx8qBibMr6h-62">
                    <mxGeometry relative="1" as="geometry"/>
                </mxCell>
            </root>
        </mxGraphModel>
    </diagram>
</mxfile>